<?xml version="1.0" encoding="UTF-8"?>
<svg version="1.1" xmlns="http://www.w3.org/2000/svg" width="260" height="260">
<path d="M0 0 C2.30793537 0.00316156 4.61458473 -0.02041527 6.92236328 -0.0456543 C20.62468994 -0.10556704 33.57338587 1.78219903 46.50439453 6.50317383 C47.34091553 6.80360596 48.17743652 7.10403809 49.03930664 7.41357422 C60.38110328 11.6198106 70.48025495 17.21894072 80.12158203 24.55786133 C82.07990412 26.04143867 84.0509911 27.38562981 86.12939453 28.69067383 C86.89251953 29.22692383 87.65564453 29.76317383 88.44189453 30.31567383 C88.44189453 30.97567383 88.44189453 31.63567383 88.44189453 32.31567383 C88.99876953 32.54254883 89.55564453 32.76942383 90.12939453 33.00317383 C93.10349041 34.69117419 95.16198318 36.78243899 97.44189453 39.31567383 C97.44189453 39.97567383 97.44189453 40.63567383 97.44189453 41.31567383 C98.01294922 41.53352539 98.58400391 41.75137695 99.17236328 41.97583008 C104.10699699 44.88904757 107.18088899 50.68482413 110.44189453 55.31567383 C111.36228516 56.60538086 111.36228516 56.60538086 112.30126953 57.92114258 C126.45641609 78.86166903 132.83858009 102.88677908 132.70263672 127.90820312 C132.69192389 130.24676524 132.70259196 132.58455682 132.71533203 134.9230957 C132.72948511 147.54997541 131.99331879 159.81985201 127.31689453 171.69067383 C126.86165405 172.88249268 126.86165405 172.88249268 126.3972168 174.09838867 C121.94307748 185.48257473 116.58430317 196.36797807 109.44189453 206.31567383 C108.82958984 207.22704102 108.21728516 208.1384082 107.58642578 209.07739258 C106.96123047 210.00165039 106.33603516 210.9259082 105.69189453 211.87817383 C105.11955078 212.72508789 104.54720703 213.57200195 103.95751953 214.44458008 C103.20728516 215.37077148 103.20728516 215.37077148 102.44189453 216.31567383 C101.78189453 216.31567383 101.12189453 216.31567383 100.44189453 216.31567383 C100.19052734 216.89317383 99.93916016 217.47067383 99.68017578 218.06567383 C98.28425878 220.60210346 96.69577863 222.29275097 94.62939453 224.31567383 C93.62972656 225.30567383 93.62972656 225.30567383 92.60986328 226.31567383 C83.86157696 234.386165 74.00986822 240.9120761 63.44189453 246.31567383 C62.36037109 246.89317383 61.27884766 247.47067383 60.16455078 248.06567383 C42.23041524 257.42612252 24.91027436 260.68640447 4.77392578 260.57641602 C2.44423413 260.56568461 0.1153132 260.57638625 -2.21435547 260.58911133 C-14.82416917 260.60328509 -27.07889341 259.86083368 -38.93310547 255.19067383 C-39.72910156 254.88645508 -40.52509766 254.58223633 -41.34521484 254.26879883 C-61.46211526 246.39488077 -81.44232461 235.03405178 -95.55810547 218.31567383 C-95.55810547 217.65567383 -95.55810547 216.99567383 -95.55810547 216.31567383 C-96.54810547 215.98567383 -97.53810547 215.65567383 -98.55810547 215.31567383 C-99.95263672 213.56567383 -99.95263672 213.56567383 -101.37060547 211.31567383 C-103.62766237 207.75967148 -103.62766237 207.75967148 -105.99951172 204.28051758 C-113.05550376 194.30215281 -118.08736964 183.0678033 -122.43310547 171.69067383 C-122.71919678 170.96444824 -123.00528809 170.23822266 -123.30004883 169.48999023 C-127.65709093 157.62428172 -127.88705254 145.13444496 -127.81884766 132.64770508 C-127.80811625 130.31801343 -127.81881789 127.98909249 -127.83154297 125.65942383 C-127.84571685 113.04950467 -127.1030491 100.79504496 -122.43310547 88.94067383 C-122.12961182 88.14612793 -121.82611816 87.35158203 -121.51342773 86.53295898 C-117.05928842 75.14877292 -111.70051411 64.26336958 -104.55810547 54.31567383 C-103.94580078 53.40430664 -103.33349609 52.49293945 -102.70263672 51.55395508 C-102.07744141 50.62969727 -101.45224609 49.70543945 -100.80810547 48.75317383 C-100.23576172 47.90625977 -99.66341797 47.0593457 -99.07373047 46.18676758 C-98.32349609 45.26057617 -98.32349609 45.26057617 -97.55810547 44.31567383 C-96.89810547 44.31567383 -96.23810547 44.31567383 -95.55810547 44.31567383 C-95.31060547 43.74333008 -95.06310547 43.17098633 -94.80810547 42.58129883 C-93.36494348 39.96556771 -91.67594325 38.16793927 -89.55810547 36.06567383 C-88.50623047 35.00606445 -88.50623047 35.00606445 -87.43310547 33.92504883 C-85.55810547 32.31567383 -85.55810547 32.31567383 -83.55810547 32.31567383 C-83.06310547 30.83067383 -83.06310547 30.83067383 -82.55810547 29.31567383 C-80.80810547 27.92114258 -80.80810547 27.92114258 -78.55810547 26.50317383 C-75.00210312 24.24611693 -75.00210312 24.24611693 -71.52294922 21.87426758 C-61.54173825 14.81626291 -50.02470023 9.47611971 -38.55810547 5.31567383 C-37.86072266 5.04110352 -37.16333984 4.7665332 -36.44482422 4.48364258 C-24.79166052 0.15897671 -12.27782682 -0.03500542 0 0 Z " fill="#05CBCA" transform="translate(127.55810546875,-0.315673828125)"/>
<path d="M0 0 C7.55426473 5.76811537 12.15144176 15.04313221 13.5078125 24.29296875 C15.47146199 40.7823731 13.64543943 55.9002611 8.98828125 71.75 C8.63894531 73.00554687 8.28960937 74.26109375 7.9296875 75.5546875 C-1.77860495 107.48892422 -20.71692468 137.16984626 -43.01171875 161.75 C-44.09505995 162.96744092 -45.1783931 164.184889 -46.26171875 165.40234375 C-52.70023588 172.56089569 -59.37397392 178.85279072 -67.01171875 184.75 C-67.81996094 185.42417969 -68.62820312 186.09835938 -69.4609375 186.79296875 C-78.47865471 194.30047245 -88.27266178 200.08076219 -98.82421875 205.125 C-99.51717041 205.45886719 -100.21012207 205.79273438 -100.92407227 206.13671875 C-112.24567641 211.39264674 -126.21914485 213.32518792 -138.359375 209.76953125 C-140.76079769 208.59236326 -142.85632022 207.32633624 -145.01171875 205.75 C-145.91921875 205.193125 -146.82671875 204.63625 -147.76171875 204.0625 C-153.8493452 197.80577281 -157.05036032 190.14574293 -159.01171875 181.75 C-159.19476563 180.99332031 -159.3778125 180.23664063 -159.56640625 179.45703125 C-163.95616347 152.77192816 -153.56220489 123.81278826 -141.04589844 100.68457031 C-139.9619827 98.65696213 -138.92536336 96.60974987 -137.89453125 94.5546875 C-133.10045076 85.08815452 -127.66582587 76.32268693 -121.44433594 67.72949219 C-120.49282557 66.41476041 -119.54808692 65.09509984 -118.61035156 63.77050781 C-104.06166553 43.22820861 -86.14167098 24.55650288 -65.01171875 10.75 C-64.02945313 10.10369629 -64.02945313 10.10369629 -63.02734375 9.44433594 C-44.60738289 -2.49875891 -20.74961502 -12.89296467 0 0 Z " fill="#008E8E" transform="translate(203.01171875,27.25)"/>
<path d="M0 0 C0.495 0.99 0.495 0.99 1 2 C0.15081919 4.43104832 -0.76500454 6.71680979 -1.8125 9.0625 C-2.12872314 9.77349854 -2.44494629 10.48449707 -2.77075195 11.21704102 C-11.80048611 30.97594383 -24.65006066 48.78586915 -39 65 C-39.77085938 65.88171875 -40.54171875 66.7634375 -41.3359375 67.671875 C-48.70307597 75.99544899 -56.424988 83.91629443 -65 91 C-65.66 90.67 -66.32 90.34 -67 90 C-58.26947371 68.52059261 -45.99046727 48.70403164 -31 31 C-30.51772949 30.42894531 -30.03545898 29.85789062 -29.53857422 29.26953125 C-20.44892757 18.54004266 -11.38485513 8.37042541 0 0 Z " fill="#05C9C8" transform="translate(163,85)"/>
<path d="M0 0 C0.99 0 1.98 0 3 0 C3.33343417 23.8643596 -12.51625294 48.27588812 -26 67 C-26.70576172 67.98758301 -26.70576172 67.98758301 -27.42578125 68.99511719 C-33.34685728 77.23228694 -39.54970724 84.9911586 -46.51953125 92.36328125 C-49.3195601 95.33968987 -51.95667882 98.42768968 -54.5625 101.57421875 C-56 103 -56 103 -59 104 C-59.495 105.485 -59.495 105.485 -60 107 C-62.06624879 108.85107595 -64.12002512 110.56121738 -66.3125 112.25 C-66.93898438 112.73581543 -67.56546875 113.22163086 -68.2109375 113.72216797 C-82.88338064 124.90064296 -82.88338064 124.90064296 -92 126 C-91 123 -91 123 -89.109375 121.9375 C-88.33078125 121.628125 -87.5521875 121.31875 -86.75 121 C-79.73993869 118.35054919 -79.73993869 118.35054919 -75.296875 112.5859375 C-74.76822882 111.18714374 -74.25337233 109.78308631 -73.75 108.375 C-68.71519385 95.29661234 -62.31740137 83.28790186 -54 72 C-52.91991933 70.41574883 -51.84007663 68.83132439 -50.76611328 67.24291992 C-39.63141921 50.84580839 -25.16983716 32.83960958 -9 21 C-8.34 21 -7.68 21 -7 21 C-7 20.34 -7 19.68 -7 19 C-6.38125 18.835 -5.7625 18.67 -5.125 18.5 C-2.34592379 16.53829915 -2.04315587 14.54995529 -1.37109375 11.30859375 C-0.76726181 7.55212346 -0.33333597 3.78950362 0 0 Z M-22.625 36.375 C-26.96685279 40.80319645 -30.96550227 45.41310055 -34.82421875 50.265625 C-36.25863415 52.06830145 -37.71930634 53.85043653 -39.20703125 55.609375 C-44.98855114 62.45404654 -49.98939573 69.65065454 -54.82421875 77.17724609 C-55.89872657 78.84300094 -56.99514294 80.49457101 -58.09375 82.14453125 C-64.19464952 91.5742946 -68.58096311 101.70074329 -73 112 C-69.47073554 112 -69.15977067 111.55717129 -66.70703125 109.21875 C-66.08070801 108.62811768 -65.45438477 108.03748535 -64.80908203 107.42895508 C-64.15020996 106.7923999 -63.49133789 106.15584473 -62.8125 105.5 C-62.13558105 104.85506592 -61.45866211 104.21013184 -60.76123047 103.5456543 C-58.83382864 101.70421858 -56.91647732 99.85278934 -55 98 C-54.19175781 97.23300781 -53.38351563 96.46601563 -52.55078125 95.67578125 C-47.21405571 90.51225573 -42.60299454 84.81714001 -38 79 C-37.21753906 78.03449219 -36.43507812 77.06898438 -35.62890625 76.07421875 C-22.95798027 60.11898875 -10.64566335 41.75982173 -5 22 C-9.99658797 22 -19.11919175 32.93356394 -22.625 36.375 Z " fill="#006364" transform="translate(169,63)"/>
<path d="M0 0 C7.61498814 5.81448118 11.96366825 15.01216719 13.61328125 24.25 C14.29619289 30.38422387 14.06616604 36.58844749 13.98828125 42.75 C13.65828125 42.75 13.32828125 42.75 12.98828125 42.75 C12.91311279 42.160979 12.83794434 41.57195801 12.76049805 40.96508789 C12.40816246 38.24627155 12.04205321 35.52947257 11.67578125 32.8125 C11.49885742 31.42321289 11.49885742 31.42321289 11.31835938 30.00585938 C9.79486831 18.87265545 7.02684181 9.35856121 -2.0546875 2.07421875 C-11.44180135 -4.27754092 -23.7696079 -3.29305599 -34.44921875 -1.25 C-66.61906669 7.13869344 -95.12026345 35.70072278 -114.01171875 61.75 C-114.86663689 62.89884745 -115.72211304 64.04727984 -116.578125 65.1953125 C-122.61935617 73.38494503 -127.99853067 81.89729451 -133.01171875 90.75 C-133.3974707 91.4296582 -133.78322266 92.10931641 -134.18066406 92.80957031 C-139.16489774 101.6791191 -143.35677188 110.55971826 -146.72265625 120.1640625 C-148.01171875 123.75 -148.01171875 123.75 -149.51171875 127.02734375 C-151.56365703 131.73030711 -152.54396792 136.69254943 -153.63671875 141.6875 C-153.85328125 142.63818359 -154.06984375 143.58886719 -154.29296875 144.56835938 C-158.09123857 161.5785122 -160.02773927 181.29507506 -150.4453125 196.8203125 C-145.58379334 203.36415573 -139.6013595 206.15394582 -132.01171875 208.75 C-132.01171875 209.08 -132.01171875 209.41 -132.01171875 209.75 C-137.99574738 210.49800358 -141.4046657 208.21006889 -146.01171875 204.75 C-153.3099366 198.47013813 -156.78738612 190.96294529 -159.01171875 181.75 C-159.19605469 180.99074219 -159.38039062 180.23148438 -159.5703125 179.44921875 C-163.93572524 152.75452668 -153.56752584 123.82262057 -141.04589844 100.68457031 C-139.9619827 98.65696213 -138.92536336 96.60974987 -137.89453125 94.5546875 C-133.10045076 85.08815452 -127.66582587 76.32268693 -121.44433594 67.72949219 C-120.49282557 66.41476041 -119.54808692 65.09509984 -118.61035156 63.77050781 C-104.06166553 43.22820861 -86.14167098 24.55650288 -65.01171875 10.75 C-64.02945313 10.10369629 -64.02945313 10.10369629 -63.02734375 9.44433594 C-44.60738289 -2.49875891 -20.74961502 -12.89296467 0 0 Z " fill="#006B6B" transform="translate(203.01171875,27.25)"/>
<path d="M0 0 C0.33 0 0.66 0 1 0 C3.47680468 39.00967367 -25.8518831 83.94465889 -50.52856445 112.04443359 C-52.01100055 113.70371913 -53.5051399 115.35190713 -55 117 C-56.0833412 118.21744092 -57.16667435 119.434889 -58.25 120.65234375 C-64.68851713 127.81089569 -71.36225517 134.10279072 -79 140 C-79.80824219 140.67417969 -80.61648437 141.34835938 -81.44921875 142.04296875 C-90.46693596 149.55047245 -100.26094303 155.33076219 -110.8125 160.375 C-111.50545166 160.70886719 -112.19840332 161.04273438 -112.91235352 161.38671875 C-120.44682317 164.88451194 -127.20406212 166.32471702 -135.5 166.125 C-136.22703125 166.11597656 -136.9540625 166.10695312 -137.703125 166.09765625 C-139.4688972 166.07442241 -141.23449614 166.03856683 -143 166 C-143 165.67 -143 165.34 -143 165 C-141.99582031 164.90203125 -140.99164063 164.8040625 -139.95703125 164.703125 C-110.85452346 161.63103449 -88.18490488 146.8295184 -67.67089844 126.64013672 C-66.13195409 125.12952477 -64.57436881 123.64201962 -63.0078125 122.16015625 C-55.9097992 115.31348903 -49.87695391 107.88890342 -44 100 C-43.56800293 99.4234668 -43.13600586 98.84693359 -42.69091797 98.25292969 C-36.18418234 89.51975136 -30.34428563 80.48751111 -25 71 C-24.56010742 70.22269531 -24.12021484 69.44539063 -23.66699219 68.64453125 C-12.26229942 48.28072104 -5.37627565 27.88372523 -1 5 C-0.66806603 3.33305407 -0.33510846 1.66631066 0 0 Z " fill="#006869" transform="translate(215,72)"/>
<path d="M0 0 C1.17046875 0.10183594 2.3409375 0.20367188 3.546875 0.30859375 C4.43890625 0.39238281 5.3309375 0.47617187 6.25 0.5625 C6.25 0.8925 6.25 1.2225 6.25 1.5625 C3.79220024 1.78376178 1.33472352 1.99000395 -1.125 2.1875 C-2.17300781 2.28417969 -2.17300781 2.28417969 -3.2421875 2.3828125 C-5.07369111 2.52369739 -6.91312748 2.55011659 -8.75 2.5625 C-9.41 1.9025 -10.07 1.2425 -10.75 0.5625 C-7.06599416 -0.66854155 -3.83525024 -0.34517252 0 0 Z " fill="#007575" transform="translate(179.75,22.4375)"/>
<path d="M0 0 C-1.5830577 4.2742558 -4.50568404 6.26531794 -8 9 C-8 6 -8 6 -6.7578125 4.39453125 C-5.94957031 3.61142578 -5.94957031 3.61142578 -5.125 2.8125 C-4.59132812 2.28269531 -4.05765625 1.75289062 -3.5078125 1.20703125 C-2 0 -2 0 0 0 Z " fill="#007172" transform="translate(154,194)"/>
<path d="" fill="#06CCCB" transform="translate(0,0)"/>
<path d="" fill="#06CCCB" transform="translate(0,0)"/>
<path d="" fill="#06CCCB" transform="translate(0,0)"/>
</svg>
